<svg width="212" height="187" viewBox="0 0 212 187" fill="none" xmlns="http://www.w3.org/2000/svg"><path d="M38 128C22 96 40 52 84 38C128 24 180 46 184 92C188 132 150 166 104 164C72 162 50 152 38 128Z" fill="#F7D7EA"/><path d="M122 58c32-14 62 8 58 46s-40 52-72 46-30-74 14-92Z" fill="#E7D3FB" opacity="0.9"/><circle cx="30" cy="36" r="3.2" fill="#1A1A1A"/><circle cx="44" cy="22" r="1.8" fill="#1A1A1A"/><circle cx="18" cy="54" r="1.6" fill="#1A1A1A"/><circle cx="176" cy="26" r="2.6" fill="#1A1A1A"/><circle cx="192" cy="46" r="1.5" fill="#1A1A1A"/><circle cx="26" cy="152" r="2.2" fill="#1A1A1A"/><circle cx="186" cy="150" r="2.8" fill="#1A1A1A"/><circle cx="172" cy="168" r="1.4" fill="#1A1A1A"/><ellipse cx="88" cy="146" rx="42" ry="7" fill="#F7D7EA" stroke="#1A1A1A" stroke-width="3" stroke-linecap="round" stroke-linejoin="round"/><path d="M122 98h8a12 12 0 0 1 0 25h-8" stroke="#1A1A1A" stroke-width="2.5" stroke-linecap="round" stroke-linejoin="round" fill="none"/><path d="M62 88h58v46a14 14 0 0 1-14 14H76a14 14 0 0 1-14-14z" fill="#FFFFFF" stroke="#1A1A1A" stroke-width="3" stroke-linecap="round" stroke-linejoin="round"/><ellipse cx="91" cy="88" rx="29" ry="7" fill="#C7A6F5" stroke="#1A1A1A" stroke-width="3" stroke-linecap="round" stroke-linejoin="round"/><path transform="translate(91 120) scale(1.1)" d="M0 9C-14 0 -12 -12 -5 -12C-2 -12 0 -10 0 -8C0 -10 2 -12 5 -12C12 -12 14 0 0 9Z" fill="#EE9CC4" stroke="#1A1A1A" stroke-width="2.73" stroke-linejoin="round"/><path d="M78 74c-7-6 7-11 0-19" stroke="#1A1A1A" stroke-width="2.5" stroke-linecap="round" stroke-linejoin="round" fill="none"/><path d="M92 74c-7-6 7-11 0-19" stroke="#1A1A1A" stroke-width="2.5" stroke-linecap="round" stroke-linejoin="round" fill="none"/><path d="M106 74c-7-6 7-11 0-19" stroke="#1A1A1A" stroke-width="2.5" stroke-linecap="round" stroke-linejoin="round" fill="none"/><path d="M150 146l4-24h24l4 24z" fill="#EE9CC4" stroke="#1A1A1A" stroke-width="3" stroke-linecap="round" stroke-linejoin="round"/><path d="M166 122V98" stroke="#1A1A1A" stroke-width="2.5" stroke-linecap="round" stroke-linejoin="round" fill="none"/><path d="M166 108c-17-3-24-19-19-32 15 2 23 14 19 32z" fill="#C7A6F5" stroke="#1A1A1A" stroke-width="3" stroke-linecap="round" stroke-linejoin="round"/><path d="M166 100c14-6 25-19 21-33-14 4-25 16-21 33z" fill="#E7D3FB" stroke="#1A1A1A" stroke-width="3" stroke-linecap="round" stroke-linejoin="round"/><path d="M44 57Q45.98 64.02 53 66Q45.98 67.98 44 75Q42.02 67.98 35 66Q42.02 64.02 44 57Z" fill="#FFFFFF" stroke="#1A1A1A" stroke-width="3" stroke-linecap="round" stroke-linejoin="round"/><path d="M196 106Q197.32 110.68 202 112Q197.32 113.32 196 118Q194.68 113.32 190 112Q194.68 110.68 196 106Z" fill="#FFFFFF" stroke="#1A1A1A" stroke-width="3" stroke-linecap="round" stroke-linejoin="round"/></svg>