<svg width="540" height="240" viewBox="0 0 540 240" fill="none" xmlns="http://www.w3.org/2000/svg">
<rect width="540" height="240" fill="url(#paint0_linear_235_779)" fill-opacity="0.08"/>
<path d="M285.163 112.965C285.067 112.965 284.971 112.924 284.903 112.846C284.779 112.702 284.795 112.485 284.938 112.361L340.85 64.0095C340.993 63.8844 341.211 63.9009 341.335 64.0442C341.459 64.1876 341.443 64.4046 341.3 64.5287L285.388 112.88C285.323 112.937 285.243 112.965 285.163 112.965Z" fill="url(#paint1_linear_235_779)"/>
<path d="M383.129 153.902C383.114 153.902 383.098 153.901 383.083 153.898L379.677 153.434C379.488 153.409 379.356 153.236 379.382 153.048C379.408 152.859 379.588 152.727 379.769 152.754L383.175 153.217C383.363 153.242 383.495 153.416 383.469 153.604C383.446 153.777 383.298 153.902 383.129 153.902ZM332.033 146.953C332.018 146.953 332.002 146.952 331.987 146.95L304.736 143.244C304.547 143.219 304.415 143.045 304.441 142.858C304.466 142.67 304.63 142.53 304.828 142.563L332.079 146.269C332.267 146.294 332.399 146.468 332.373 146.655C332.35 146.828 332.202 146.953 332.033 146.953Z" fill="#D59EFB"/>
<path d="M140.046 170.343C139.895 170.343 139.757 170.243 139.715 170.092C139.663 169.908 139.77 169.719 139.953 169.668L236.941 142.573C237.125 142.52 237.313 142.628 237.364 142.811C237.416 142.994 237.309 143.183 237.127 143.235L140.139 170.33C140.107 170.338 140.076 170.343 140.046 170.343Z" fill="#D59EFB"/>
<path d="M238.339 114.267C238.263 114.267 238.189 114.243 238.125 114.193L172.834 62.3326C172.685 62.2146 172.66 61.9982 172.778 61.8498C172.897 61.7004 173.115 61.677 173.261 61.7943L238.553 113.654C238.701 113.772 238.726 113.989 238.608 114.137C238.54 114.223 238.44 114.267 238.339 114.267Z" fill="#D59EFB"/>
<path d="M234.005 209.432C233.959 209.432 233.913 209.424 233.869 209.405C233.695 209.329 233.614 209.127 233.688 208.953L234.979 205.955C235.054 205.779 235.255 205.698 235.43 205.774C235.605 205.849 235.686 206.052 235.611 206.226L234.321 209.224C234.264 209.354 234.137 209.432 234.005 209.432ZM240.731 193.803C240.686 193.803 240.639 193.794 240.595 193.775C240.421 193.699 240.34 193.497 240.414 193.323L251.285 168.061C251.361 167.886 251.562 167.804 251.737 167.88C251.912 167.955 251.992 168.158 251.918 168.331L241.047 193.594C240.99 193.724 240.863 193.803 240.731 193.803Z" fill="url(#paint2_linear_235_779)"/>
<path d="M220.307 132.334C220.284 132.334 220.261 132.332 220.237 132.327L193.306 126.752C193.121 126.713 193.001 126.531 193.039 126.346C193.077 126.16 193.253 126.042 193.445 126.078L220.376 131.654C220.562 131.693 220.682 131.874 220.644 132.06C220.61 132.222 220.467 132.334 220.307 132.334ZM179.91 123.971C179.887 123.971 179.864 123.969 179.841 123.964L176.475 123.268C176.289 123.229 176.169 123.047 176.207 122.861C176.245 122.676 176.425 122.559 176.614 122.594L179.98 123.291C180.166 123.33 180.285 123.511 180.247 123.697C180.213 123.859 180.07 123.971 179.91 123.971Z" fill="url(#paint3_linear_235_779)"/>
<path d="M251.434 96.198C251.278 96.198 251.138 96.092 251.1 95.9348L244.626 69.2054C244.582 69.0213 244.695 68.8354 244.88 68.7903C245.061 68.7495 245.25 68.8599 245.295 69.0439L251.768 95.7734C251.813 95.9575 251.7 96.1434 251.515 96.1885C251.488 96.1945 251.461 96.198 251.434 96.198Z" fill="url(#paint4_linear_235_779)"/>
<path d="M295.614 132.334C295.461 132.334 295.32 132.23 295.281 132.074C295.235 131.89 295.346 131.704 295.53 131.657L359.704 115.476C359.886 115.428 360.075 115.541 360.121 115.725C360.167 115.91 360.056 116.096 359.872 116.143L295.698 132.324C295.67 132.331 295.642 132.334 295.614 132.334Z" fill="url(#paint5_linear_235_779)"/>
<path d="M352.958 206.649C352.888 206.649 352.819 206.628 352.759 206.586L280.798 155.391C280.643 155.281 280.607 155.066 280.716 154.912C280.828 154.755 281.045 154.723 281.196 154.83L353.157 206.025C353.312 206.135 353.348 206.35 353.238 206.504C353.17 206.599 353.064 206.649 352.958 206.649Z" fill="url(#paint6_linear_235_779)"/>
<path d="M416.956 182.807C409.948 182.807 403.432 180.011 398.605 174.935C398.475 174.799 398.467 174.569 398.601 174.438C398.737 174.307 398.94 174.296 399.072 174.428C399.08 174.436 399.113 174.471 399.12 174.48C403.799 179.4 410.138 182.119 416.956 182.119C421.168 182.119 425.326 181.037 428.978 178.99C429.146 178.898 429.354 178.957 429.446 179.122C429.539 179.288 429.48 179.497 429.315 179.59C425.559 181.695 421.286 182.807 416.956 182.807ZM439.961 167.555C439.917 167.555 439.871 167.547 439.827 167.528C439.653 167.455 439.57 167.253 439.644 167.077C440.169 165.835 440.594 164.534 440.91 163.213C440.953 163.029 441.135 162.917 441.324 162.959C441.509 163.003 441.622 163.188 441.578 163.373C441.254 164.73 440.817 166.067 440.278 167.345C440.223 167.476 440.095 167.555 439.961 167.555ZM392.652 152.069C392.626 152.069 392.6 152.065 392.573 152.059C392.388 152.015 392.273 151.831 392.317 151.646C392.638 150.288 393.074 148.951 393.611 147.671C393.686 147.495 393.886 147.414 394.061 147.487C394.237 147.561 394.319 147.762 394.245 147.937C393.723 149.183 393.299 150.484 392.986 151.804C392.949 151.962 392.808 152.069 392.652 152.069ZM434.845 140.569L435.101 140.338L434.801 140.521C430.106 135.581 423.766 132.861 416.948 132.861C412.723 132.861 408.554 133.949 404.894 136.008C404.731 136.102 404.52 136.042 404.426 135.877C404.333 135.711 404.391 135.501 404.557 135.408C408.32 133.292 412.605 132.174 416.948 132.174C423.956 132.174 430.474 134.97 435.299 140.047L435.1 140.338L434.845 140.569Z" fill="#D59EFB"/>
<path d="M416.953 138.706C406.578 138.706 398.168 147.116 398.168 157.491C398.168 167.865 406.578 176.275 416.953 176.275C427.327 176.275 435.737 167.865 435.737 157.491C435.737 147.116 427.327 138.706 416.953 138.706Z" fill="#F8F2FC"/>
<path d="M416.952 176.619C406.405 176.619 397.824 168.038 397.824 157.491C397.824 146.943 406.405 138.362 416.952 138.362C427.5 138.362 436.081 146.943 436.081 157.491C436.081 168.038 427.5 176.619 416.952 176.619ZM416.952 139.05C406.784 139.05 398.512 147.322 398.512 157.491C398.512 167.659 406.784 175.931 416.952 175.931C427.121 175.931 435.394 167.659 435.394 157.491C435.393 147.322 427.121 139.05 416.952 139.05Z" fill="#D59EFB"/>
<path d="M418.946 156.547C420.409 155.816 421.404 154.311 421.404 152.576C421.404 150.118 419.406 148.12 416.948 148.12C414.499 148.12 412.5 150.118 412.5 152.576C412.5 154.311 413.495 155.816 414.95 156.547C411.625 157.423 409.175 160.459 409.175 164.065C409.175 166.497 424.729 166.497 424.729 164.065C424.729 160.459 422.272 157.423 418.946 156.547Z" fill="#D59EFB"/>
<path d="M121.273 199.17C111.14 199.17 102.016 193.151 98.0291 183.837C97.9545 183.663 98.0274 183.443 98.2019 183.368C98.3772 183.294 98.571 183.356 98.6456 183.531L98.3295 183.666L98.657 183.558C102.54 192.627 111.415 198.482 121.273 198.482C122.528 198.482 123.795 198.384 125.036 198.191C125.23 198.162 125.399 198.29 125.428 198.477C125.458 198.665 125.329 198.84 125.142 198.87C123.865 199.069 122.564 199.17 121.273 199.17ZM139.408 191.334C139.324 191.334 139.239 191.303 139.173 191.241C139.034 191.11 139.028 190.893 139.158 190.755C140.084 189.771 140.934 188.702 141.685 187.579C141.79 187.421 142.004 187.381 142.162 187.485C142.32 187.59 142.363 187.803 142.257 187.961C141.485 189.117 140.611 190.215 139.658 191.226C139.591 191.298 139.499 191.334 139.408 191.334ZM143.887 164.287L144.206 164.158L143.865 164.232C139.982 155.162 131.107 149.307 121.249 149.307C119.98 149.307 118.702 149.407 117.45 149.604C117.258 149.632 117.086 149.505 117.056 149.318C117.027 149.13 117.155 148.954 117.342 148.925C118.63 148.722 119.945 148.619 121.249 148.619C131.383 148.619 140.506 154.638 144.493 163.953L144.206 164.158L143.887 164.287ZM100.53 160.394C100.464 160.394 100.398 160.375 100.339 160.336C100.181 160.231 100.139 160.017 100.245 159.859C101.016 158.702 101.888 157.603 102.837 156.591C102.967 156.452 103.184 156.448 103.323 156.576C103.461 156.706 103.468 156.923 103.339 157.062C102.416 158.046 101.566 159.116 100.816 160.241C100.75 160.34 100.641 160.394 100.53 160.394Z" fill="url(#paint7_linear_235_779)"/>
<path d="M121.261 155.11C110.886 155.11 102.476 163.52 102.476 173.895C102.476 184.269 110.886 192.679 121.261 192.679C131.635 192.679 140.045 184.269 140.045 173.895C140.045 163.52 131.635 155.11 121.261 155.11Z" fill="#F8F2FC"/>
<path d="M121.26 193.024C110.713 193.024 102.132 184.443 102.132 173.895C102.132 163.348 110.713 154.767 121.26 154.767C131.808 154.767 140.389 163.348 140.389 173.895C140.389 184.443 131.808 193.024 121.26 193.024ZM121.26 155.455C111.092 155.455 102.82 163.726 102.82 173.895C102.82 184.063 111.092 192.336 121.26 192.336C131.429 192.336 139.702 184.063 139.702 173.895C139.702 163.726 131.429 155.455 121.26 155.455Z" fill="#D59EFB"/>
<path d="M123.255 172.952C124.718 172.22 125.713 170.715 125.713 168.98C125.713 166.522 123.714 164.524 121.257 164.524C118.807 164.524 116.809 166.522 116.809 168.98C116.809 170.715 117.804 172.22 119.258 172.952C115.933 173.828 113.484 176.864 113.484 180.469C113.484 182.901 129.038 182.901 129.038 180.469C129.038 176.864 126.58 173.828 123.255 172.952Z" fill="#D59EFB"/>
<path d="M158.497 75.306C154.229 75.306 150.013 74.2161 146.307 72.1553C146.141 72.0633 146.081 71.854 146.173 71.6881C146.264 71.5214 146.474 71.4614 146.64 71.5543C150.245 73.5586 154.345 74.6182 158.497 74.6182C163.478 74.6182 168.269 73.1297 172.353 70.3126C172.509 70.2066 172.723 70.244 172.831 70.4004C172.939 70.5567 172.9 70.7713 172.744 70.8788C168.544 73.775 163.617 75.306 158.497 75.306ZM181.196 60.4776C181.15 60.4776 181.103 60.4681 181.058 60.448C180.884 60.3725 180.805 60.1693 180.882 59.9956C181.336 58.9595 181.72 57.8869 182.022 56.8075C182.073 56.6251 182.26 56.5183 182.446 56.5695C182.628 56.6208 182.735 56.8101 182.684 56.9932C182.374 58.1032 181.979 59.2068 181.511 60.2715C181.454 60.4011 181.328 60.4776 181.196 60.4776ZM134.379 56.2302C134.223 56.2302 134.082 56.1234 134.045 55.9653C133.779 54.8424 133.59 53.6857 133.484 52.528C133.466 52.3397 133.605 52.1719 133.795 52.1547C133.987 52.1382 134.151 52.2762 134.168 52.4655C134.272 53.591 134.455 54.7156 134.713 55.8072C134.757 55.9922 134.643 56.1772 134.458 56.2206C134.431 56.2266 134.405 56.2302 134.379 56.2302ZM136.304 39.4981C136.252 39.4981 136.2 39.4869 136.152 39.4616C135.981 39.3773 135.912 39.1706 135.997 39.0013C140.278 30.4047 148.9 25.0638 158.497 25.0638C167.217 25.0638 175.187 29.4833 179.814 36.8867C179.915 37.0481 179.866 37.2601 179.705 37.3609C179.544 37.4589 179.331 37.4121 179.231 37.2514C174.73 30.0505 166.979 25.7518 158.497 25.7518C149.162 25.7518 140.777 30.9459 136.612 39.3071C136.552 39.4278 136.43 39.4981 136.304 39.4981Z" fill="#D59EFB"/>
<path d="M158.497 31.4003C148.123 31.4003 139.713 39.8103 139.713 50.1848C139.713 60.5591 148.123 68.9693 158.497 68.9693C168.871 68.9693 177.282 60.5592 177.282 50.1848C177.281 39.8103 168.871 31.4003 158.497 31.4003Z" fill="#F8F2FC"/>
<path d="M158.497 69.3131C147.95 69.3131 139.369 60.7322 139.369 50.1851C139.369 39.637 147.95 31.0562 158.497 31.0562C169.045 31.0562 177.626 39.637 177.626 50.1851C177.626 60.7321 169.045 69.3131 158.497 69.3131ZM158.497 31.7439C148.329 31.7439 140.057 40.0166 140.057 50.1851C140.057 60.3535 148.329 68.6253 158.497 68.6253C168.666 68.6253 176.938 60.3535 176.938 50.1851C176.938 40.0166 168.666 31.7439 158.497 31.7439Z" fill="#D59EFB"/>
<path d="M160.491 49.2416C161.954 48.5102 162.949 47.0049 162.949 45.2701C162.949 42.8124 160.951 40.814 158.493 40.814C156.044 40.814 154.045 42.8124 154.045 45.2701C154.045 47.0049 155.04 48.5102 156.495 49.2416C153.17 50.1174 150.72 53.1535 150.72 56.7591C150.72 59.1912 166.274 59.1912 166.274 56.7591C166.274 53.1535 163.817 50.1174 160.491 49.2416Z" fill="#D59EFB"/>
<path d="M355.361 72.0165C355.342 72.0165 355.323 72.0147 355.304 72.0113C347.579 70.7173 340.893 66.066 336.963 59.2515C336.868 59.0865 336.925 58.8763 337.089 58.7816C337.255 58.687 337.464 58.7434 337.558 58.9075C341.386 65.544 347.896 70.0729 355.417 71.3338C355.605 71.365 355.731 71.5422 355.699 71.7289C355.672 71.8976 355.526 72.0165 355.361 72.0165ZM366.642 71.4189C366.491 71.4189 366.353 71.319 366.311 71.1679C366.259 70.9846 366.366 70.7953 366.549 70.744C367.441 70.4947 368.335 70.19 369.207 69.8391C369.386 69.7661 369.583 69.8539 369.654 70.0293C369.725 70.2055 369.64 70.4062 369.464 70.4766C368.569 70.837 367.651 71.1497 366.735 71.4058C366.703 71.4146 366.672 71.4189 366.642 71.4189ZM382.012 59.5119C381.953 59.5119 381.893 59.4971 381.839 59.4649C381.675 59.3695 381.619 59.1593 381.715 58.9951C383.968 55.1236 385.16 50.6946 385.161 46.1866C385.161 43.1349 384.627 40.1518 383.577 37.319C383.511 37.141 383.601 36.9429 383.779 36.877C383.959 36.8101 384.155 36.9013 384.221 37.0794C385.3 39.9894 385.848 43.0533 385.848 46.1866C385.847 50.8162 384.624 55.3651 382.309 59.3407C382.246 59.4503 382.13 59.5119 382.012 59.5119ZM334.065 42.957C334.049 42.957 334.034 42.9562 334.017 42.9534C333.83 42.9274 333.699 42.7537 333.725 42.5653C333.858 41.6126 334.043 40.6607 334.277 39.7359C334.325 39.5526 334.516 39.4441 334.695 39.4866C334.879 39.5336 334.99 39.7202 334.944 39.9043C334.716 40.8049 334.535 41.7324 334.406 42.6607C334.382 42.8329 334.234 42.957 334.065 42.957ZM339.722 30.0904C339.645 30.0904 339.567 30.0643 339.503 30.0112C339.356 29.8906 339.337 29.6744 339.457 29.5275C344.456 23.4728 351.82 20 359.662 20L359.764 20.0009C359.954 20.0009 360.107 20.1545 360.107 20.3447C360.107 20.535 359.954 20.6886 359.764 20.6886L359.653 20.6876C352.026 20.6876 344.855 24.0694 339.987 29.9651C339.919 30.0479 339.821 30.0904 339.722 30.0904ZM377.745 28.0687C377.658 28.0687 377.572 28.0357 377.505 27.9706C376.836 27.315 376.126 26.6923 375.395 26.1192C375.245 26.0019 375.219 25.7857 375.335 25.6364C375.453 25.4862 375.67 25.4626 375.818 25.5773C376.569 26.1661 377.299 26.8061 377.986 27.4792C378.121 27.6121 378.124 27.83 377.991 27.9656C377.923 28.0339 377.835 28.0687 377.745 28.0687Z" fill="#D59EFB"/>
<path d="M359.663 27.4021C349.288 27.4021 340.878 35.8121 340.878 46.1866C340.878 56.5611 349.288 64.9711 359.663 64.9711C370.037 64.9711 378.447 56.5609 378.447 46.1866C378.447 35.8123 370.037 27.4021 359.663 27.4021Z" fill="#F8F2FC"/>
<path d="M359.663 65.3148C349.115 65.3148 340.534 56.7339 340.534 46.1868C340.534 35.6387 349.115 27.0579 359.663 27.0579C370.21 27.0579 378.791 35.6389 378.791 46.1868C378.791 56.7338 370.21 65.3148 359.663 65.3148ZM359.663 27.7457C349.494 27.7457 341.222 36.0183 341.222 46.1868C341.222 56.3552 349.494 64.627 359.663 64.627C369.831 64.627 378.103 56.3552 378.103 46.1868C378.103 36.0183 369.831 27.7457 359.663 27.7457Z" fill="url(#paint8_linear_235_779)"/>
<path d="M361.657 45.2434C363.119 44.512 364.114 43.0068 364.114 41.272C364.114 38.8144 362.116 36.8159 359.658 36.8159C357.209 36.8159 355.211 38.8144 355.211 41.272C355.211 43.0068 356.206 44.5122 357.66 45.2434C354.335 46.1192 351.885 49.1553 351.885 52.7611C351.885 55.1932 367.439 55.1932 367.439 52.7611C367.439 49.1553 364.982 46.1194 361.657 45.2434Z" fill="url(#paint9_linear_235_779)"/>
<path d="M163.604 107.254C156.694 107.254 151.092 112.856 151.092 119.766C151.092 126.677 156.694 132.279 163.604 132.279C170.515 132.279 176.117 126.677 176.117 119.766C176.117 112.856 170.515 107.254 163.604 107.254Z" fill="url(#paint10_linear_235_779)"/>
<path d="M164.933 119.138C165.907 118.651 166.57 117.648 166.57 116.492C166.57 114.855 165.239 113.524 163.602 113.524C161.97 113.524 160.639 114.855 160.639 116.492C160.639 117.648 161.302 118.651 162.271 119.138C160.056 119.721 158.424 121.744 158.424 124.146C158.424 125.766 168.785 125.766 168.785 124.146C168.785 121.744 167.148 119.721 164.933 119.138Z" fill="#F8F2FC"/>
<path d="M241.832 45.2052C236.094 45.2052 231.443 49.8568 231.443 55.5949C231.443 61.333 236.094 65.9846 241.832 65.9846C247.57 65.9846 252.222 61.333 252.222 55.5949C252.222 49.8568 247.57 45.2052 241.832 45.2052Z" fill="url(#paint11_linear_235_779)"/>
<path d="M242.936 55.073C243.745 54.6686 244.295 53.8359 244.295 52.8765C244.295 51.5172 243.19 50.4117 241.83 50.4117C240.476 50.4117 239.37 51.5171 239.37 52.8765C239.37 53.8361 239.92 54.6686 240.725 55.073C238.886 55.5575 237.531 57.2367 237.531 59.231C237.531 60.5763 246.134 60.5763 246.134 59.231C246.134 57.2367 244.775 55.5575 242.936 55.073Z" fill="#F8F2FC"/>
<path d="M235.112 199.221C229.374 199.221 224.723 203.872 224.723 209.61C224.723 215.348 229.374 220 235.112 220C240.85 220 245.502 215.348 245.502 209.61C245.502 203.872 240.85 199.221 235.112 199.221Z" fill="#D59EFB"/>
<path d="M236.215 209.089C237.024 208.684 237.575 207.852 237.575 206.892C237.575 205.533 236.469 204.428 235.11 204.428C233.755 204.428 232.65 205.533 232.65 206.892C232.65 207.852 233.2 208.684 234.004 209.089C232.165 209.573 230.811 211.253 230.811 213.247C230.811 214.592 239.414 214.592 239.414 213.247C239.414 211.253 238.054 209.573 236.215 209.089Z" fill="#F8F2FC"/>
<path d="M356.106 196.185C350.368 196.185 345.716 200.837 345.716 206.575C345.716 212.313 350.368 216.964 356.106 216.964C361.844 216.964 366.495 212.313 366.495 206.575C366.496 200.837 361.844 196.185 356.106 196.185Z" fill="url(#paint12_linear_235_779)"/>
<path d="M357.209 206.053C358.018 205.649 358.568 204.816 358.568 203.856C358.568 202.497 357.463 201.392 356.103 201.392C354.749 201.392 353.643 202.497 353.643 203.856C353.643 204.816 354.194 205.648 354.998 206.053C353.159 206.538 351.804 208.217 351.804 210.211C351.804 211.556 360.407 211.556 360.407 210.211C360.407 208.217 359.048 206.538 357.209 206.053Z" fill="#F8F2FC"/>
<path d="M359.788 96.5486C350.676 96.5486 343.289 103.935 343.289 113.047C343.289 122.16 350.676 129.546 359.788 129.546C368.9 129.546 376.287 122.159 376.287 113.047C376.287 103.935 368.9 96.5486 359.788 96.5486Z" fill="#D59EFB"/>
<path d="M361.539 112.219C362.824 111.577 363.698 110.255 363.698 108.731C363.698 106.572 361.943 104.817 359.784 104.817C357.633 104.817 355.878 106.572 355.878 108.731C355.878 110.255 356.752 111.577 358.029 112.219C355.109 112.989 352.957 115.655 352.957 118.822C352.957 120.958 366.619 120.958 366.619 118.822C366.619 115.655 364.46 112.988 361.539 112.219Z" fill="#F8F2FC"/>
<path d="M285.428 63.2501C285.428 65.1628 283.878 66.7134 281.965 66.7134C280.053 66.7134 278.502 65.1628 278.502 63.2501C278.502 61.3374 280.053 59.787 281.965 59.787C283.878 59.787 285.428 61.3376 285.428 63.2501Z" fill="url(#paint13_linear_235_779)"/>
<path d="M205.163 176.925C205.163 177.938 204.342 178.759 203.33 178.759C202.317 178.759 201.496 177.938 201.496 176.925C201.496 175.913 202.317 175.092 203.33 175.092C204.342 175.092 205.163 175.913 205.163 176.925Z" fill="url(#paint14_linear_235_779)"/>
<path d="M188.458 103.994C188.458 105.007 187.637 105.827 186.625 105.827C185.612 105.827 184.791 105.007 184.791 103.994C184.791 102.981 185.612 102.161 186.625 102.161C187.637 102.161 188.458 102.981 188.458 103.994Z" fill="url(#paint15_linear_235_779)"/>
<path d="M334.321 167.758C334.321 169.108 333.226 170.203 331.876 170.203C330.526 170.203 329.432 169.108 329.432 167.758C329.432 166.408 330.526 165.313 331.876 165.313C333.226 165.313 334.321 166.408 334.321 167.758Z" fill="url(#paint16_linear_235_779)"/>
<path d="M342.877 134.348C342.877 134.573 342.695 134.756 342.47 134.756C342.245 134.756 342.062 134.573 342.062 134.348C342.062 134.123 342.245 133.94 342.47 133.94C342.695 133.941 342.877 134.123 342.877 134.348Z" fill="#D59EFB"/>
<path d="M311.912 109.291C311.912 110.528 310.908 111.531 309.671 111.531C308.433 111.531 307.43 110.528 307.43 109.291C307.43 108.053 308.433 107.05 309.671 107.05C310.908 107.05 311.912 108.053 311.912 109.291Z" fill="#D59EFB"/>
<path d="M316.801 54.4903C317.701 54.4903 318.431 53.7606 318.431 52.8604C318.431 51.9603 317.701 51.2306 316.801 51.2306C315.901 51.2306 315.171 51.9603 315.171 52.8604C315.171 53.7606 315.901 54.4903 316.801 54.4903Z" fill="#D59EFB"/>
<path d="M196.607 52.4529C198.182 52.4529 199.459 51.176 199.459 49.6008C199.459 48.0256 198.182 46.7487 196.607 46.7487C195.032 46.7487 193.755 48.0256 193.755 49.6008C193.755 51.176 195.032 52.4529 196.607 52.4529Z" fill="#D59EFB"/>
<path d="M154.641 152.683C154.641 153.583 153.911 154.312 153.011 154.312C152.111 154.312 151.381 153.583 151.381 152.683C151.381 151.783 152.111 151.053 153.011 151.053C153.911 151.053 154.641 151.783 154.641 152.683Z" fill="#D59EFB"/>
<path d="M267.909 203.205C267.909 204.105 267.179 204.834 266.279 204.834C265.379 204.834 264.649 204.105 264.649 203.205C264.649 202.305 265.379 201.575 266.279 201.575C267.179 201.575 267.909 202.305 267.909 203.205Z" fill="#D59EFB"/>
<path d="M315.929 213.982C316.146 212.993 315.52 212.015 314.531 211.798C313.542 211.58 312.564 212.206 312.347 213.195C312.13 214.184 312.756 215.162 313.745 215.379C314.734 215.596 315.711 214.971 315.929 213.982Z" fill="url(#paint17_linear_235_779)"/>
<path d="M292.355 24.3397C293.255 24.3397 293.985 23.61 293.985 22.7099C293.985 21.8098 293.255 21.0801 292.355 21.0801C291.455 21.0801 290.725 21.8098 290.725 22.7099C290.725 23.61 291.455 24.3397 292.355 24.3397Z" fill="url(#paint18_linear_235_779)"/>
<path d="M350.746 84.044C351.994 83.5273 352.586 82.0973 352.069 80.8499C351.553 79.6025 350.123 79.0102 348.875 79.5269C347.628 80.0435 347.036 81.4736 347.552 82.721C348.069 83.9683 349.499 84.5607 350.746 84.044Z" fill="#F8F2FC"/>
<path d="M349.803 84.5775C348.266 84.5775 347.015 83.3259 347.015 81.7889C347.015 80.2519 348.266 79.0005 349.803 79.0005C351.341 79.0005 352.592 80.2519 352.592 81.7889C352.592 83.3259 351.34 84.5775 349.803 84.5775ZM349.803 79.6881C348.645 79.6881 347.703 80.6303 347.703 81.7889C347.703 82.9475 348.645 83.8897 349.803 83.8897C350.962 83.8897 351.904 82.9475 351.904 81.7889C351.904 80.6305 350.962 79.6881 349.803 79.6881Z" fill="url(#paint19_linear_235_779)"/>
<path d="M168.086 180.796C168.086 181.921 167.174 182.833 166.049 182.833C164.924 182.833 164.012 181.921 164.012 180.796C164.012 179.671 164.924 178.759 166.049 178.759C167.174 178.759 168.086 179.671 168.086 180.796Z" fill="#F8F2FC"/>
<path d="M166.049 183.177C164.736 183.177 163.668 182.109 163.668 180.796C163.668 179.483 164.736 178.415 166.049 178.415C167.362 178.415 168.43 179.483 168.43 180.796C168.43 182.109 167.362 183.177 166.049 183.177ZM166.049 179.103C165.115 179.103 164.356 179.862 164.356 180.796C164.356 181.73 165.115 182.489 166.049 182.489C166.983 182.489 167.742 181.73 167.742 180.796C167.742 179.862 166.983 179.103 166.049 179.103Z" fill="url(#paint20_linear_235_779)"/>
<path d="M217.386 198.519C217.386 200.432 215.836 201.982 213.923 201.982C212.01 201.982 210.46 200.432 210.46 198.519C210.46 196.607 212.01 195.056 213.923 195.056C215.836 195.056 217.386 196.607 217.386 198.519Z" fill="#F8F2FC"/>
<path d="M213.923 202.327C211.824 202.327 210.116 200.619 210.116 198.52C210.116 196.421 211.824 194.713 213.923 194.713C216.022 194.713 217.73 196.421 217.73 198.52C217.73 200.619 216.022 202.327 213.923 202.327ZM213.923 195.4C212.203 195.4 210.804 196.8 210.804 198.52C210.804 200.24 212.203 201.639 213.923 201.639C215.643 201.639 217.042 200.24 217.042 198.52C217.042 196.799 215.643 195.4 213.923 195.4Z" fill="#D59EFB"/>
<path d="M166.864 89.1224C169.114 89.1224 170.938 87.2982 170.938 85.0479C170.938 82.7977 169.114 80.9735 166.864 80.9735C164.614 80.9735 162.789 82.7977 162.789 85.0479C162.789 87.2982 164.614 89.1224 166.864 89.1224Z" fill="#F8F2FC"/>
<path d="M166.863 89.4666C164.427 89.4666 162.446 87.4841 162.446 85.0481C162.446 82.6121 164.427 80.6295 166.863 80.6295C169.299 80.6295 171.282 82.6121 171.282 85.0481C171.282 87.4841 169.299 89.4666 166.863 89.4666ZM166.863 81.3173C164.807 81.3173 163.134 82.9907 163.134 85.0481C163.134 87.1053 164.807 88.7788 166.863 88.7788C168.921 88.7788 170.594 87.1053 170.594 85.0481C170.594 82.9908 168.921 81.3173 166.863 81.3173Z" fill="#780AC1"/>
<path d="M220.238 79.1402C220.238 81.9529 217.958 84.2332 215.145 84.2332C212.333 84.2332 210.052 81.9529 210.052 79.1402C210.052 76.3275 212.332 74.0472 215.145 74.0472C217.958 74.0471 220.238 76.3273 220.238 79.1402Z" fill="#F8F2FC"/>
<path d="M215.146 84.5775C212.148 84.5775 209.708 82.138 209.708 79.1403C209.708 76.1424 212.148 73.703 215.146 73.703C218.143 73.703 220.582 76.1424 220.582 79.1403C220.582 82.138 218.144 84.5775 215.146 84.5775ZM215.146 74.3908C212.527 74.3908 210.396 76.521 210.396 79.1403C210.396 81.7595 212.527 83.8897 215.146 83.8897C217.764 83.8897 219.894 81.7595 219.894 79.1403C219.894 76.521 217.764 74.3908 215.146 74.3908Z" fill="#D59EFB"/>
<path d="M286.651 88.9188C286.651 91.7317 284.371 94.0117 281.558 94.0117C278.745 94.0117 276.465 91.7315 276.465 88.9188C276.465 86.106 278.745 83.8258 281.558 83.8258C284.371 83.8258 286.651 86.106 286.651 88.9188Z" fill="#F8F2FC"/>
<path d="M281.558 94.3561C278.56 94.3561 276.121 91.9165 276.121 88.9188C276.121 85.9209 278.56 83.4816 281.558 83.4816C284.556 83.4816 286.994 85.9209 286.994 88.9188C286.994 91.9165 284.556 94.3561 281.558 94.3561ZM281.558 84.1694C278.939 84.1694 276.809 86.2995 276.809 88.9188C276.809 91.5379 278.939 93.6683 281.558 93.6683C284.176 93.6683 286.307 91.5381 286.307 88.9188C286.307 86.2995 284.176 84.1694 281.558 84.1694Z" fill="#780AC1"/>
<path d="M388.103 137.608C388.103 140.083 386.096 142.089 383.621 142.089C381.146 142.089 379.139 140.083 379.139 137.608C379.139 135.132 381.146 133.126 383.621 133.126C386.096 133.126 388.103 135.132 388.103 137.608Z" fill="#F8F2FC"/>
<path d="M383.621 142.433C380.96 142.433 378.795 140.268 378.795 137.607C378.795 134.946 380.96 132.781 383.621 132.781C386.282 132.781 388.447 134.946 388.447 137.607C388.447 140.268 386.282 142.433 383.621 142.433ZM383.621 133.469C381.339 133.469 379.483 135.325 379.483 137.607C379.483 139.889 381.339 141.745 383.621 141.745C385.903 141.745 387.759 139.889 387.759 137.607C387.759 135.325 385.903 133.469 383.621 133.469Z" fill="url(#paint21_linear_235_779)"/>
<path d="M368.953 179.777C368.953 183.265 366.126 186.093 362.638 186.093C359.15 186.093 356.323 183.265 356.323 179.777C356.323 176.289 359.15 173.462 362.638 173.462C366.126 173.462 368.953 176.289 368.953 179.777Z" fill="#F8F2FC"/>
<path d="M362.638 186.437C358.966 186.437 355.979 183.449 355.979 179.777C355.979 176.106 358.966 173.118 362.638 173.118C366.31 173.118 369.297 176.106 369.297 179.777C369.297 183.449 366.31 186.437 362.638 186.437ZM362.638 173.806C359.345 173.806 356.667 176.484 356.667 179.777C356.667 183.071 359.345 185.749 362.638 185.749C365.931 185.749 368.609 183.071 368.609 179.777C368.609 176.484 365.931 173.806 362.638 173.806Z" fill="url(#paint22_linear_235_779)"/>
<path d="M296.429 192.408C296.429 194.996 294.331 197.093 291.744 197.093C289.156 197.093 287.058 194.996 287.058 192.408C287.058 189.82 289.156 187.722 291.744 187.722C294.332 187.722 296.429 189.82 296.429 192.408Z" fill="#F8F2FC"/>
<path d="M291.744 197.438C288.971 197.438 286.715 195.182 286.715 192.408C286.715 189.635 288.971 187.379 291.744 187.379C294.517 187.379 296.773 189.635 296.773 192.408C296.773 195.182 294.517 197.438 291.744 197.438ZM291.744 188.066C289.349 188.066 287.402 190.013 287.402 192.408C287.402 194.802 289.349 196.75 291.744 196.75C294.138 196.75 296.085 194.802 296.085 192.408C296.085 190.013 294.138 188.066 291.744 188.066Z" fill="#D59EFB"/>
<path d="M217.386 163.072C217.386 164.31 216.383 165.313 215.146 165.313C213.908 165.313 212.905 164.31 212.905 163.072C212.905 161.835 213.908 160.832 215.146 160.832C216.383 160.831 217.386 161.835 217.386 163.072Z" fill="#F8F2FC"/>
<path d="M215.146 165.658C213.721 165.658 212.56 164.497 212.56 163.072C212.56 161.647 213.721 160.488 215.146 160.488C216.571 160.488 217.73 161.647 217.73 163.072C217.73 164.497 216.571 165.658 215.146 165.658ZM215.146 161.176C214.099 161.176 213.248 162.027 213.248 163.072C213.248 164.119 214.099 164.97 215.146 164.97C216.191 164.97 217.042 164.119 217.042 163.072C217.042 162.027 216.191 161.176 215.146 161.176Z" fill="url(#paint23_linear_235_779)"/>
<path d="M213.312 114.995C213.312 116.232 212.309 117.236 211.071 117.236C209.833 117.236 208.83 116.232 208.83 114.995C208.83 113.757 209.833 112.754 211.071 112.754C212.309 112.754 213.312 113.757 213.312 114.995Z" fill="#F8F2FC"/>
<path d="M211.071 117.58C209.646 117.58 208.487 116.42 208.487 114.995C208.487 113.57 209.646 112.41 211.071 112.41C212.496 112.41 213.655 113.57 213.655 114.995C213.655 116.42 212.496 117.58 211.071 117.58ZM211.071 113.098C210.025 113.098 209.174 113.949 209.174 114.995C209.174 116.041 210.025 116.892 211.071 116.892C212.117 116.892 212.967 116.041 212.967 114.995C212.968 113.949 212.117 113.098 211.071 113.098Z" fill="url(#paint24_linear_235_779)"/>
<path d="M324.135 112.958C324.135 113.97 323.314 114.791 322.302 114.791C321.289 114.791 320.468 113.97 320.468 112.958C320.468 111.945 321.289 111.124 322.302 111.124C323.314 111.124 324.135 111.945 324.135 112.958Z" fill="#F8F2FC"/>
<path d="M322.301 115.135C321.101 115.135 320.124 114.158 320.124 112.958C320.124 111.757 321.101 110.78 322.301 110.78C323.502 110.78 324.479 111.757 324.479 112.958C324.479 114.158 323.502 115.135 322.301 115.135ZM322.301 111.468C321.48 111.468 320.812 112.136 320.812 112.958C320.812 113.779 321.48 114.447 322.301 114.447C323.123 114.447 323.791 113.779 323.791 112.958C323.791 112.136 323.123 111.468 322.301 111.468Z" fill="url(#paint25_linear_235_779)"/>
<path d="M256.881 169.886C256.862 169.886 256.843 169.884 256.824 169.881C246.926 168.223 238.361 162.264 233.325 153.532C233.231 153.367 233.287 153.157 233.451 153.062C233.619 152.966 233.827 153.024 233.921 153.188C238.854 161.741 247.243 167.579 256.937 169.203C257.125 169.235 257.251 169.412 257.219 169.599C257.192 169.767 257.046 169.886 256.881 169.886ZM271.376 169.118C271.225 169.118 271.087 169.019 271.045 168.867C270.994 168.684 271.1 168.495 271.283 168.444C272.444 168.119 273.596 167.726 274.71 167.276C274.884 167.203 275.085 167.291 275.157 167.466C275.228 167.642 275.143 167.843 274.967 167.914C273.831 168.373 272.653 168.773 271.468 169.105C271.437 169.114 271.406 169.118 271.376 169.118ZM291.127 153.818C291.068 153.818 291.009 153.804 290.954 153.771C290.79 153.676 290.735 153.466 290.83 153.302C293.736 148.31 295.271 142.601 295.271 136.793C295.271 132.86 294.584 129.015 293.229 125.364C293.163 125.186 293.253 124.988 293.431 124.922C293.612 124.856 293.807 124.947 293.873 125.124C295.257 128.853 295.958 132.779 295.958 136.793C295.959 142.722 294.392 148.55 291.424 153.647C291.361 153.757 291.245 153.818 291.127 153.818ZM229.518 132.544C229.503 132.544 229.487 132.544 229.471 132.541C229.283 132.515 229.152 132.341 229.178 132.154C229.346 130.935 229.584 129.715 229.885 128.527C229.932 128.343 230.124 128.233 230.302 128.278C230.486 128.325 230.598 128.512 230.552 128.696C230.257 129.859 230.024 131.054 229.859 132.247C229.835 132.419 229.688 132.544 229.518 132.544ZM236.787 116.012C236.71 116.012 236.632 115.986 236.568 115.933C236.421 115.812 236.401 115.596 236.522 115.449C242.925 107.692 252.36 103.243 262.408 103.243H262.538C262.729 103.243 262.882 103.396 262.882 103.586C262.882 103.777 262.729 103.93 262.538 103.93H262.408C252.566 103.93 243.324 108.288 237.052 115.887C236.984 115.97 236.886 116.012 236.787 116.012ZM285.644 113.415C285.557 113.415 285.47 113.382 285.403 113.317C284.545 112.475 283.629 111.672 282.683 110.928C282.534 110.811 282.508 110.595 282.625 110.445C282.742 110.295 282.958 110.271 283.108 110.388C284.074 111.146 285.007 111.967 285.884 112.825C286.02 112.958 286.022 113.176 285.89 113.311C285.822 113.38 285.733 113.415 285.644 113.415Z" fill="url(#paint26_linear_235_779)"/>
<path d="M262.408 179.51C262.218 179.51 262.021 179.355 262.021 179.165C262.021 178.976 262.13 178.821 262.321 178.821L262.418 178.822C269.608 178.822 276.71 176.972 282.948 173.471C283.115 173.377 283.324 173.437 283.416 173.602C283.509 173.768 283.45 173.977 283.285 174.07C276.944 177.629 269.726 179.51 262.408 179.51ZM304.224 144.024C304.206 144.024 304.187 144.022 304.168 144.02C303.981 143.989 303.854 143.812 303.884 143.625C304.028 142.748 304.145 141.85 304.233 140.955C304.253 140.767 304.432 140.64 304.61 140.647C304.798 140.666 304.936 140.834 304.918 141.023C304.828 141.931 304.709 142.844 304.563 143.736C304.536 143.904 304.39 144.024 304.224 144.024ZM220.23 133.027C220.22 133.027 220.209 133.026 220.197 133.025C220.008 133.007 219.87 132.839 219.888 132.65C219.976 131.74 220.094 130.826 220.238 129.936C220.269 129.75 220.44 129.624 220.632 129.651C220.819 129.682 220.947 129.858 220.917 130.046C220.775 130.922 220.66 131.821 220.573 132.716C220.555 132.894 220.406 133.027 220.23 133.027ZM241.624 100.201C241.504 100.201 241.388 100.138 241.324 100.026C241.232 99.861 241.29 99.6517 241.456 99.5579C247.816 95.9714 255.061 94.0754 262.408 94.0754H262.582C262.772 94.0754 262.926 94.2292 262.926 94.4194C262.926 94.6095 262.772 94.7632 262.582 94.7632H262.408C255.179 94.7632 248.051 96.6285 241.792 100.157C241.74 100.187 241.681 100.201 241.624 100.201Z" fill="#D59EFB"/>
<path d="M262.408 110.692C247.993 110.692 236.307 122.377 236.307 136.793C236.307 151.208 247.993 162.894 262.408 162.894C276.823 162.894 288.509 151.208 288.509 136.793C288.509 122.377 276.823 110.692 262.408 110.692Z" fill="#F8F2FC"/>
<path d="M262.408 163.238C247.826 163.238 235.963 151.375 235.963 136.793C235.963 122.211 247.826 110.347 262.408 110.347C276.99 110.347 288.854 122.211 288.854 136.793C288.853 151.375 276.99 163.238 262.408 163.238ZM262.408 111.035C248.205 111.035 236.651 122.59 236.651 136.793C236.651 150.996 248.205 162.55 262.408 162.55C276.611 162.55 288.166 150.996 288.166 136.793C288.166 122.59 276.611 111.035 262.408 111.035Z" fill="#780AC1"/>
<path d="M265.179 135.482C267.212 134.466 268.594 132.374 268.594 129.964C268.594 126.549 265.817 123.772 262.402 123.772C258.999 123.772 256.222 126.549 256.222 129.964C256.222 132.374 257.605 134.466 259.625 135.482C255.005 136.699 251.602 140.918 251.602 145.928C251.602 149.307 273.214 149.307 273.214 145.928C273.214 140.918 269.799 136.699 265.179 135.482Z" fill="#780AC1"/>
<defs>
<linearGradient id="paint0_linear_235_779" x1="296.748" y1="-26.4" x2="296.748" y2="342.6" gradientUnits="userSpaceOnUse">
<stop stop-color="#D59EFB"/>
<stop offset="1" stop-color="#780AC1"/>
</linearGradient>
<linearGradient id="paint1_linear_235_779" x1="315.923" y1="58.531" x2="315.923" y2="133.929" gradientUnits="userSpaceOnUse">
<stop stop-color="#D59EFB"/>
<stop offset="1" stop-color="#780AC1"/>
</linearGradient>
<linearGradient id="paint2_linear_235_779" x1="243.709" y1="163.277" x2="243.709" y2="227.208" gradientUnits="userSpaceOnUse">
<stop stop-color="#D59EFB"/>
<stop offset="1" stop-color="#780AC1"/>
</linearGradient>
<linearGradient id="paint3_linear_235_779" x1="200.627" y1="121.516" x2="200.627" y2="136.501" gradientUnits="userSpaceOnUse">
<stop stop-color="#D59EFB"/>
<stop offset="1" stop-color="#780AC1"/>
</linearGradient>
<linearGradient id="paint4_linear_235_779" x1="248.552" y1="65.7661" x2="248.552" y2="107.918" gradientUnits="userSpaceOnUse">
<stop stop-color="#D59EFB"/>
<stop offset="1" stop-color="#780AC1"/>
</linearGradient>
<linearGradient id="paint5_linear_235_779" x1="330.914" y1="113.61" x2="330.914" y2="139.546" gradientUnits="userSpaceOnUse">
<stop stop-color="#D59EFB"/>
<stop offset="1" stop-color="#780AC1"/>
</linearGradient>
<linearGradient id="paint6_linear_235_779" x1="320.576" y1="149.06" x2="320.576" y2="228.829" gradientUnits="userSpaceOnUse">
<stop stop-color="#D59EFB"/>
<stop offset="1" stop-color="#780AC1"/>
</linearGradient>
<linearGradient id="paint7_linear_235_779" x1="123.549" y1="143.058" x2="123.549" y2="220.781" gradientUnits="userSpaceOnUse">
<stop stop-color="#D59EFB"/>
<stop offset="1" stop-color="#780AC1"/>
</linearGradient>
<linearGradient id="paint8_linear_235_779" x1="361.557" y1="22.8496" x2="361.557" y2="81.6696" gradientUnits="userSpaceOnUse">
<stop stop-color="#D59EFB"/>
<stop offset="1" stop-color="#780AC1"/>
</linearGradient>
<linearGradient id="paint9_linear_235_779" x1="360.433" y1="34.8613" x2="360.433" y2="62.1815" gradientUnits="userSpaceOnUse">
<stop stop-color="#D59EFB"/>
<stop offset="1" stop-color="#780AC1"/>
</linearGradient>
<linearGradient id="paint10_linear_235_779" x1="164.844" y1="104.501" x2="164.844" y2="142.978" gradientUnits="userSpaceOnUse">
<stop stop-color="#D59EFB"/>
<stop offset="1" stop-color="#780AC1"/>
</linearGradient>
<linearGradient id="paint11_linear_235_779" x1="242.862" y1="42.9195" x2="242.862" y2="74.8678" gradientUnits="userSpaceOnUse">
<stop stop-color="#D59EFB"/>
<stop offset="1" stop-color="#780AC1"/>
</linearGradient>
<linearGradient id="paint12_linear_235_779" x1="357.135" y1="193.899" x2="357.135" y2="225.848" gradientUnits="userSpaceOnUse">
<stop stop-color="#D59EFB"/>
<stop offset="1" stop-color="#780AC1"/>
</linearGradient>
<linearGradient id="paint13_linear_235_779" x1="282.308" y1="59.0251" x2="282.308" y2="69.6744" gradientUnits="userSpaceOnUse">
<stop stop-color="#D59EFB"/>
<stop offset="1" stop-color="#780AC1"/>
</linearGradient>
<linearGradient id="paint14_linear_235_779" x1="203.511" y1="174.688" x2="203.511" y2="180.326" gradientUnits="userSpaceOnUse">
<stop stop-color="#D59EFB"/>
<stop offset="1" stop-color="#780AC1"/>
</linearGradient>
<linearGradient id="paint15_linear_235_779" x1="186.806" y1="101.757" x2="186.806" y2="107.395" gradientUnits="userSpaceOnUse">
<stop stop-color="#D59EFB"/>
<stop offset="1" stop-color="#780AC1"/>
</linearGradient>
<linearGradient id="paint16_linear_235_779" x1="332.118" y1="164.775" x2="332.118" y2="172.293" gradientUnits="userSpaceOnUse">
<stop stop-color="#D59EFB"/>
<stop offset="1" stop-color="#780AC1"/>
</linearGradient>
<linearGradient id="paint17_linear_235_779" x1="311.992" y1="212.931" x2="317.499" y2="214.141" gradientUnits="userSpaceOnUse">
<stop stop-color="#D59EFB"/>
<stop offset="1" stop-color="#780AC1"/>
</linearGradient>
<linearGradient id="paint18_linear_235_779" x1="292.516" y1="20.7215" x2="292.516" y2="25.7333" gradientUnits="userSpaceOnUse">
<stop stop-color="#D59EFB"/>
<stop offset="1" stop-color="#780AC1"/>
</linearGradient>
<linearGradient id="paint19_linear_235_779" x1="350.08" y1="78.387" x2="350.08" y2="86.9616" gradientUnits="userSpaceOnUse">
<stop stop-color="#D59EFB"/>
<stop offset="1" stop-color="#780AC1"/>
</linearGradient>
<linearGradient id="paint20_linear_235_779" x1="166.285" y1="177.891" x2="166.285" y2="185.213" gradientUnits="userSpaceOnUse">
<stop stop-color="#D59EFB"/>
<stop offset="1" stop-color="#780AC1"/>
</linearGradient>
<linearGradient id="paint21_linear_235_779" x1="384.099" y1="131.72" x2="384.099" y2="146.559" gradientUnits="userSpaceOnUse">
<stop stop-color="#D59EFB"/>
<stop offset="1" stop-color="#780AC1"/>
</linearGradient>
<linearGradient id="paint22_linear_235_779" x1="363.298" y1="171.653" x2="363.298" y2="192.13" gradientUnits="userSpaceOnUse">
<stop stop-color="#D59EFB"/>
<stop offset="1" stop-color="#780AC1"/>
</linearGradient>
<linearGradient id="paint23_linear_235_779" x1="215.401" y1="159.919" x2="215.401" y2="167.868" gradientUnits="userSpaceOnUse">
<stop stop-color="#D59EFB"/>
<stop offset="1" stop-color="#780AC1"/>
</linearGradient>
<linearGradient id="paint24_linear_235_779" x1="211.327" y1="111.841" x2="211.327" y2="119.79" gradientUnits="userSpaceOnUse">
<stop stop-color="#D59EFB"/>
<stop offset="1" stop-color="#780AC1"/>
</linearGradient>
<linearGradient id="paint25_linear_235_779" x1="322.517" y1="110.301" x2="322.517" y2="116.997" gradientUnits="userSpaceOnUse">
<stop stop-color="#D59EFB"/>
<stop offset="1" stop-color="#780AC1"/>
</linearGradient>
<linearGradient id="paint26_linear_235_779" x1="265.875" y1="95.9119" x2="265.875" y2="198.376" gradientUnits="userSpaceOnUse">
<stop stop-color="#D59EFB"/>
<stop offset="1" stop-color="#780AC1"/>
</linearGradient>
</defs>
</svg>
